<svg xmlns="http://www.w3.org/2000/svg" xmlns:xlink="http://www.w3.org/1999/xlink" width="500" zoomAndPan="magnify" viewBox="0 0 375 374.999991" height="500" preserveAspectRatio="xMidYMid meet" version="1.2"><defs><clipPath id="de8011880d"><path d="M 0 187.5 C 0 83.945312 83.945312 0 187.5 0 C 291.054688 0 375 83.945312 375 187.5 C 375 291.054688 291.054688 375 187.5 375 C 83.945312 375 0 291.054688 0 187.5 L 56.25 187.5 C 56.25 259.988281 115.011719 318.75 187.5 318.75 C 259.988281 318.75 318.75 259.988281 318.75 187.5 C 318.75 115.011719 259.988281 56.25 187.5 56.25 C 115.011719 56.25 56.25 115.011719 56.25 187.5 Z M 0 187.5 "/></clipPath><clipPath id="cfa398b175"><path d="M 2 0 L 375 0 L 375 375 L 2 375 Z M 2 0 "/></clipPath><clipPath id="41f2595e7b"><path d="M 2.941406 154.410156 C 16.390625 79.390625 73.914062 19.980469 148.460938 4.109375 C 223.003906 -11.761719 299.738281 19.074219 342.578125 82.109375 C 385.417969 145.144531 385.835938 227.839844 343.640625 291.308594 C 301.445312 354.777344 225.027344 386.390625 150.324219 371.277344 C 135.101562 368.199219 125.253906 353.359375 128.335938 338.132812 C 131.414062 322.910156 146.253906 313.066406 161.476562 316.144531 C 213.769531 326.722656 267.261719 304.59375 296.796875 260.167969 C 326.335938 215.738281 326.042969 157.851562 296.054688 113.726562 C 266.066406 69.601562 212.351562 48.019531 160.171875 59.125 C 107.988281 70.234375 67.726562 111.824219 58.308594 164.339844 C 56.535156 174.230469 49.621094 182.421875 40.167969 185.832031 C 30.71875 189.242188 20.164062 187.347656 12.484375 180.867188 C 4.808594 174.386719 1.167969 164.300781 2.941406 154.410156 Z M 2.941406 154.410156 "/></clipPath><clipPath id="ea477c1b68"><path d="M 112.136719 82 L 262.886719 82 L 262.886719 293 L 112.136719 293 Z M 112.136719 82 "/></clipPath></defs><g id="0c14d4bef5"><rect x="0" width="375" y="0" height="374.999991" style="fill:#ffffff;fill-opacity:1;stroke:none;"/><rect x="0" width="375" y="0" height="374.999991" style="fill:#000000;fill-opacity:1;stroke:none;"/><g clip-rule="nonzero" clip-path="url(#de8011880d)"><rect x="0" width="375" y="0" height="374.999991" style="fill:#000000;fill-opacity:1;stroke:none;"/></g><g clip-rule="nonzero" clip-path="url(#cfa398b175)"><g clip-rule="nonzero" clip-path="url(#41f2595e7b)"><rect x="0" width="375" y="0" height="374.999991" style="fill:#ffffff;fill-opacity:1;stroke:none;"/></g></g><g clip-rule="nonzero" clip-path="url(#ea477c1b68)"><path style=" stroke:none;fill-rule:nonzero;fill:#ffffff;fill-opacity:1;" d="M 187.496094 82 C 157.351562 141.347656 112.136719 172.425781 112.136719 217.640625 C 112.136719 259.253906 145.882812 293 187.496094 293 C 229.105469 293 262.851562 259.253906 262.851562 217.640625 C 262.851562 172.425781 217.636719 142.285156 187.496094 82 Z M 187.496094 82 "/></g></g></svg>