<svg xmlns="http://www.w3.org/2000/svg" xmlns:xlink="http://www.w3.org/1999/xlink" width="500" zoomAndPan="magnify" viewBox="0 0 375 374.999991" height="500" preserveAspectRatio="xMidYMid meet" version="1.2"><defs><clipPath id="be88315498"><path d="M 187.5 0 C 83.945312 0 0 83.945312 0 187.5 C 0 291.054688 83.945312 375 187.5 375 C 291.054688 375 375 291.054688 375 187.5 C 375 83.945312 291.054688 0 187.5 0 Z M 187.5 0 "/></clipPath><clipPath id="30bcf3bf5a"><path d="M 119.671875 92.472656 L 255.421875 92.472656 L 255.421875 282.222656 L 119.671875 282.222656 Z M 119.671875 92.472656 "/></clipPath></defs><g id="6f6db3496b"><rect x="0" width="375" y="0" height="374.999991" style="fill:#ffffff;fill-opacity:1;stroke:none;"/><rect x="0" width="375" y="0" height="374.999991" style="fill:#ffffff;fill-opacity:1;stroke:none;"/><g clip-rule="nonzero" clip-path="url(#be88315498)"><rect x="0" width="375" y="0" height="374.999991" style="fill:#ffffff;fill-opacity:1;stroke:none;"/></g><g clip-rule="nonzero" clip-path="url(#30bcf3bf5a)"><path style=" stroke:none;fill-rule:nonzero;fill:#000000;fill-opacity:1;" d="M 187.546875 92.546875 C 160.398438 145.878906 119.671875 173.804688 119.671875 214.433594 C 119.671875 251.824219 150.066406 282.144531 187.546875 282.144531 C 225.027344 282.144531 255.421875 251.824219 255.421875 214.433594 C 255.421875 173.804688 214.699219 146.71875 187.546875 92.546875 Z M 187.546875 92.546875 "/></g></g></svg>