<svg xmlns="http://www.w3.org/2000/svg" xmlns:xlink="http://www.w3.org/1999/xlink" width="500" zoomAndPan="magnify" viewBox="0 0 375 374.999991" height="500" preserveAspectRatio="xMidYMid meet" version="1.2"><defs><clipPath id="20e5d619bb"><path d="M 18.75 18.75 L 356.25 18.75 L 356.25 356.25 L 18.75 356.25 Z M 18.75 18.75 "/></clipPath><clipPath id="7e101a6763"><path d="M 18.75 187.5 C 18.75 94.300781 94.300781 18.75 187.5 18.75 C 280.699219 18.75 356.25 94.300781 356.25 187.5 C 356.25 280.699219 280.699219 356.25 187.5 356.25 C 94.300781 356.25 18.75 280.699219 18.75 187.5 L 69.375 187.5 C 69.375 252.738281 122.261719 305.625 187.5 305.625 C 252.738281 305.625 305.625 252.738281 305.625 187.5 C 305.625 122.261719 252.738281 69.375 187.5 69.375 C 122.261719 69.375 69.375 122.261719 69.375 187.5 Z M 18.75 187.5 "/></clipPath><clipPath id="599e8ff445"><path d="M 21 18 L 356.25 18 L 356.25 357 L 21 357 Z M 21 18 "/></clipPath><clipPath id="d41df899aa"><path d="M 21.398438 157.71875 C 33.503906 90.203125 85.273438 36.730469 152.363281 22.449219 C 219.453125 8.167969 288.515625 35.914062 327.070312 92.648438 C 365.625 149.382812 366.003906 223.808594 328.027344 280.929688 C 290.050781 338.050781 221.273438 366.5 154.042969 352.898438 C 140.339844 350.128906 131.480469 336.773438 134.25 323.070312 C 137.023438 309.367188 150.378906 300.507812 164.078125 303.28125 C 211.140625 312.800781 259.285156 292.886719 285.867188 252.898438 C 312.453125 212.914062 312.1875 160.816406 285.199219 121.105469 C 258.210938 81.390625 209.867188 61.964844 162.90625 71.964844 C 115.941406 81.960938 79.703125 119.390625 71.230469 166.65625 C 69.632812 175.554688 63.410156 182.929688 54.902344 186 C 46.394531 189.066406 36.898438 187.363281 29.988281 181.53125 C 23.078125 175.699219 19.800781 166.621094 21.398438 157.71875 Z M 21.398438 157.71875 "/></clipPath></defs><g id="8f4fcbfed4"><rect x="0" width="375" y="0" height="374.999991" style="fill:#ffffff;fill-opacity:1;stroke:none;"/><rect x="0" width="375" y="0" height="374.999991" style="fill:#ffffff;fill-opacity:1;stroke:none;"/><g clip-rule="nonzero" clip-path="url(#20e5d619bb)"><g clip-rule="nonzero" clip-path="url(#7e101a6763)"><path style=" stroke:none;fill-rule:nonzero;fill:#ffffff;fill-opacity:1;" d="M 18.75 356.25 L 18.75 18.75 L 356.25 18.75 L 356.25 356.25 Z M 18.75 356.25 "/></g></g><g clip-rule="nonzero" clip-path="url(#599e8ff445)"><g clip-rule="nonzero" clip-path="url(#d41df899aa)"><path style=" stroke:none;fill-rule:nonzero;fill:#000000;fill-opacity:1;" d="M 18.75 356.25 L 18.75 18.75 L 356.25 18.75 L 356.25 356.25 Z M 18.75 356.25 "/></g></g></g></svg>